HIERARCHY
ROOT RootJoint
{
    OFFSET   0.000000   0.000000   0.000000
    CHANNELS 6 Xposition Yposition Zposition Xrotation Yrotation Zrotation
    JOINT pelvis_lowerback
    {
        OFFSET   0.000000   0.093605   0.000000
        CHANNELS 3 Xrotation Yrotation Zrotation
        JOINT lowerback_torso
        {
            OFFSET   0.000000   0.100000   0.000000
            CHANNELS 3 Xrotation Yrotation Zrotation
            JOINT torso_head
            {
                OFFSET   0.000000   0.282350   0.000000
                CHANNELS 3 Xrotation Yrotation Zrotation
                End Site
                {
                    OFFSET   0.000000   0.192650   0.000000
                }
            }
            JOINT rTorso_Clavicle
            {
                OFFSET  -0.001000   0.157500   0.000000
                CHANNELS 3 Xrotation Yrotation Zrotation
                JOINT rShoulder
                {
                    OFFSET  -0.117647   0.000000   0.000000
                    CHANNELS 3 Xrotation Yrotation Zrotation
                    JOINT rElbow
                    {
                        OFFSET  -0.245000   0.000000   0.000000
                        CHANNELS 3 Xrotation Yrotation Zrotation
                        JOINT rWrist
                        {
                            OFFSET  -0.240000   0.000000   0.000000
                            CHANNELS 3 Xrotation Yrotation Zrotation
                            End Site
                            {
                                OFFSET  -0.116353  -0.002500   0.000000
                            }
                        }
                    }
                }
            }
            JOINT lTorso_Clavicle
            {
                OFFSET   0.001000   0.157500   0.000000
                CHANNELS 3 Xrotation Yrotation Zrotation
                JOINT lShoulder
                {
                    OFFSET   0.117647   0.000000   0.000000
                    CHANNELS 3 Xrotation Yrotation Zrotation
                    JOINT lElbow
                    {
                        OFFSET   0.245000   0.000000   0.000000
                        CHANNELS 3 Xrotation Yrotation Zrotation
                        JOINT lWrist
                        {
                            OFFSET   0.240000   0.000000   0.000000
                            CHANNELS 3 Xrotation Yrotation Zrotation
                            End Site
                            {
                                OFFSET   0.116353  -0.002500   0.000000
                            }
                        }
                    }
                }
            }
        }
    }
    JOINT rHip
    {
        OFFSET  -0.100000  -0.051395   0.000000
        CHANNELS 3 Xrotation Yrotation Zrotation
        JOINT rKnee
        {
            OFFSET   0.000000  -0.410000   0.000000
            CHANNELS 3 Xrotation Yrotation Zrotation
            JOINT rAnkle
            {
                OFFSET   0.000000  -0.390000   0.000000
                CHANNELS 3 Xrotation Yrotation Zrotation
                JOINT rToeJoint
                {
                    OFFSET   0.000000  -0.050000   0.130000
                    CHANNELS 3 Xrotation Yrotation Zrotation
                    End Site
                    {
                        OFFSET  -0.010000   0.002000   0.060000
                    }
                }
            }
        }
    }
    JOINT lHip
    {
        OFFSET   0.100000  -0.051395   0.000000
        CHANNELS 3 Xrotation Yrotation Zrotation
        JOINT lKnee
        {
            OFFSET   0.000000  -0.410000   0.000000
            CHANNELS 3 Xrotation Yrotation Zrotation
            JOINT lAnkle
            {
                OFFSET   0.000000  -0.390000   0.000000
                CHANNELS 3 Xrotation Yrotation Zrotation
                JOINT lToeJoint
                {
                    OFFSET   0.000000  -0.050000   0.130000
                    CHANNELS 3 Xrotation Yrotation Zrotation
                    End Site
                    {
                        OFFSET   0.010000   0.002000   0.060000
                    }
                }
            }
        }
    }
}
MOTION
Frames: 17
Frame Time:   0.008333
 -1.669644   0.896077   3.752562  -4.836718 -18.477161   2.897889   5.952861   3.505333  -0.337341  -4.525641   0.961068   1.994499  -0.855093   2.426905  -0.335279  -3.537227  11.092313  -8.548729  -4.406586  37.130149  23.065824 -179.999976  82.949239 179.999892 -10.352171   9.645831   2.920521  -6.459328  -1.192589  11.093637 -31.308635   8.884876 -13.837211   0.000087 -52.161818   0.000085 -16.474856  -9.376846  13.027478  10.395643   1.524048  -6.165681  17.602949   0.000613   0.000178 -23.096060  -0.162189  -0.440494  -0.318626  -0.000249  -0.000119 -15.107819   0.301790   4.815084  18.879563   0.001143   0.000335  -3.919149   5.884789  -4.144752   0.855372   0.000027   0.000068
 -1.670202   0.896533   3.751031  -4.926001 -18.545229   2.875337   6.012128   3.485168  -0.286191  -4.579831   0.996921   2.004151  -0.834054   2.363349  -0.321962  -3.582227  11.143651  -8.587511  -4.354063  37.218720  23.002014 -179.999924  82.903414 179.999807 -10.344669   9.651556   2.880452  -6.465348  -1.150248  11.059509 -31.277497   8.917197 -13.816645   0.000089 -52.143099   0.000085 -16.477646  -9.389708  13.096451  10.409319   1.534954  -6.123368  17.532790   0.000535   0.000166 -22.946346  -0.096299  -0.446769  -0.341907  -0.000190  -0.000096 -14.846698   0.261170   4.901528  18.702613   0.001084   0.000406  -3.893232   5.816647  -4.244326   0.813541   0.000025   0.000113
 -1.670724   0.896944   3.749613  -5.009233 -18.614719   2.850021   6.063262   3.465421  -0.234869  -4.631568   1.031597   2.015515  -0.814648   2.303361  -0.307907  -3.622092  11.194361  -8.619847  -4.305721  37.306411  22.946445 -179.999868  82.855776 179.999729 -10.337992   9.656871   2.844337  -6.470670  -1.110035  11.024779 -31.247962   8.949258 -13.798267   0.000090 -52.124309   0.000086 -16.481380  -9.396348  13.166435  10.420135   1.547832  -6.081260  17.470930   0.000465   0.000155 -22.808595  -0.030918  -0.450654  -0.362286  -0.000144  -0.000077 -14.591525   0.221552   4.985076  18.540475   0.001012   0.000455  -3.868688   5.752472  -4.337307   0.777904   0.000022   0.000140
 -1.671207   0.897315   3.748299  -5.085435 -18.679780   2.823405   6.107852   3.445705  -0.184577  -4.681842   1.063225   2.027839  -0.797157   2.247227  -0.294308  -3.657967  11.242188  -8.648252  -4.260202  37.389515  22.895969 -179.999824  82.810280 179.999673 -10.332022   9.661805   2.811662  -6.475433  -1.072855  10.990618 -31.220053   8.979559 -13.782312   0.000088 -52.106602   0.000086 -16.485507  -9.400708  13.233317  10.428728   1.560076  -6.038987  17.414431   0.000403   0.000143 -22.681410   0.030573  -0.453570  -0.380102  -0.000109  -0.000062 -14.346985   0.185087   5.063443  18.391947   0.000929   0.000476  -3.845691   5.692487  -4.424042   0.745889   0.000019   0.000153
 -1.671651   0.897651   3.747087  -5.154519 -18.739742   2.796068   6.147256   3.426314  -0.135901  -4.730475   1.091769   2.040487  -0.781360   2.194811  -0.281368  -3.690723  11.286591  -8.673914  -4.217249  37.467258  22.849335 -179.999796  82.767555 179.999640 -10.326539   9.666514   2.781288  -6.479761  -1.038588  10.957723 -31.193826   9.007869 -13.768214   0.000084 -52.090098   0.000083 -16.489631  -9.404503  13.296650  10.435288   1.570989  -5.996859  17.362080   0.000349   0.000131 -22.563817   0.087440  -0.455739  -0.395718  -0.000082  -0.000050 -14.114296   0.151925   5.136017  18.255272   0.000841   0.000478  -3.824188   5.636462  -4.504962   0.716904   0.000016   0.000158
 -1.672054   0.897953   3.745971  -5.216629 -18.794864   2.768196   6.182528   3.407428  -0.089153  -4.777170   1.117531   2.053122  -0.766985   2.145894  -0.269138  -3.720901  11.327615  -8.697450  -4.176775  37.539679  22.805931 -179.999784  82.727611 179.999628 -10.321403   9.671087   2.752502  -6.483753  -1.006936  10.926458 -31.169271   9.034237 -13.755530   0.000079 -52.074752   0.000079 -16.493611  -9.408274  13.356790  10.440037   1.580753  -5.955138  17.313057   0.000303   0.000120 -22.455061   0.140037  -0.457314  -0.409405  -0.000061  -0.000040 -13.893902   0.121821   5.202792  18.129131   0.000753   0.000465  -3.804102   5.584142  -4.580464   0.690579   0.000012   0.000155
 -1.672418   0.898226   3.744950  -5.271997 -18.845511   2.739822   6.214498   3.389151  -0.044519  -4.821681   1.140828   2.065550  -0.753814   2.100249  -0.257623  -3.748839  11.365474  -8.719209  -4.138691  37.607046  22.765401 -179.999786  82.690326 179.999634 -10.316536   9.675558   2.724946  -6.487474  -0.977647  10.896979 -31.146338   9.058762 -13.743967   0.000073 -52.060490   0.000074 -16.497404  -9.412168  13.414115  10.443241   1.589706  -5.913998  17.266748   0.000262   0.000109 -22.354550   0.188907  -0.458381  -0.421386  -0.000046  -0.000032 -13.685932   0.094471   5.263970  18.012460   0.000667   0.000443  -3.785349   5.535283  -4.650915   0.666629   0.000009   0.000149
 -1.672722   0.898447   3.744035  -5.324288 -18.900921   2.722296   6.241283   3.367543  -0.006562  -4.858570   1.161753   2.072364  -0.741908   2.075710  -0.246543  -3.778521  11.398047  -8.729651  -4.108843  37.699730  22.704190 -179.999756  82.625498 179.999578 -10.318962   9.672464   2.740260  -6.488468  -0.973082  10.852782 -31.131244   9.093097 -13.677824   0.000078 -52.036746   0.000077 -16.511969  -9.398967  13.443000  10.429619   1.600025  -5.891052  17.262845   0.000211   0.000088 -22.281971   0.241136  -0.448914  -0.433134  -0.000033  -0.000026 -13.490055   0.072521   5.314436  17.922965   0.000581   0.000411  -3.774269   5.478311  -4.714807   0.633089   0.000007   0.000156
 -1.672980   0.898632   3.743237  -5.374332 -18.951702   2.705951   6.263791   3.344730   0.030629  -4.894328   1.179972   2.079104  -0.730041   2.053139  -0.236090  -3.808353  11.430851  -8.740195  -4.083462  37.790772  22.647158 -179.999716  82.559704 179.999516 -10.322470   9.668327   2.761798  -6.489899  -0.971289  10.813173 -31.118393   9.123795 -13.614424   0.000082 -52.014168   0.000080 -16.526689  -9.381681  13.472557  10.418097   1.609228  -5.872794  17.267018   0.000168   0.000069 -22.222245   0.288917  -0.437981  -0.443507  -0.000023  -0.000021 -13.302666   0.052258   5.362909  17.843895   0.000506   0.000374  -3.763812   5.424937  -4.774461   0.602306   0.000006   0.000156
 -1.673190   0.898787   3.742551  -5.420186 -18.997642   2.690097   6.281715   3.322254   0.067433  -4.930152   1.195876   2.086691  -0.719166   2.032018  -0.226237  -3.836939  11.462437  -8.750362  -4.060551  37.876942  22.593868 -179.999678  82.497202 179.999465 -10.325874   9.664373   2.782602  -6.491392  -0.971320  10.777128 -31.106869   9.151051 -13.555231   0.000084 -51.993605   0.000080 -16.540496  -9.366560  13.500836  10.409291   1.617065  -5.857722  17.272990   0.000132   0.000054 -22.171752   0.332385  -0.426565  -0.452449  -0.000016  -0.000017 -13.125529   0.033678   5.410389  17.771573   0.000440   0.000337  -3.753994   5.375133  -4.830108   0.574425   0.000006   0.000151
 -1.673353   0.898915   3.741972  -5.461315 -19.039464   2.674721   6.295854   3.300618   0.103705  -4.965937   1.209910   2.095127  -0.709427   2.012303  -0.216935  -3.864027  11.492222  -8.760002  -4.039479  37.957694  22.543991 -179.999647  82.438559 179.999429 -10.328993   9.660779   2.801629  -6.492927  -0.972419  10.744144 -31.096448   9.175544 -13.499948   0.000083 -51.974844   0.000079 -16.553271  -9.354238  13.527645  10.402966   1.623795  -5.845771  17.279068   0.000105   0.000041 -22.129135   0.372034  -0.414932  -0.459988  -0.000012  -0.000013 -12.959271   0.016611   5.456775  17.704704   0.000383   0.000301  -3.744816   5.328675  -4.882016   0.549061   0.000006   0.000143
 -1.673468   0.899020   3.741497  -5.497645 -19.077860   2.659764   6.307067   3.280033   0.139305  -5.001263   1.222441   2.104284  -0.700707   1.993914  -0.208149  -3.889585  11.520047  -8.769107  -4.019945  38.033097  22.497276 -179.999626  82.383717 179.999409 -10.331824   9.657537   2.818875  -6.494515  -0.974062  10.713930 -31.087001   9.197785 -13.448207   0.000080 -51.957638   0.000077 -16.565135  -9.344223  13.553350  10.398918   1.629696  -5.836957  17.284603   0.000083   0.000032 -22.093641   0.408313  -0.403192  -0.466171  -0.000008  -0.000011 -12.804032   0.000875   5.501926  17.642559   0.000334   0.000268  -3.736255   5.285336  -4.930438   0.525929   0.000006   0.000132
 -1.673534   0.899102   3.741121  -5.529237 -19.113397   2.645093   6.316084   3.260605   0.174132  -5.035720   1.233756   2.114037  -0.692854   1.976764  -0.199850  -3.913632  11.545925  -8.777693  -4.001755  38.103399  22.453512 -179.999617  82.332491 179.999406 -10.334400   9.654603   2.834549  -6.496157  -0.975930  10.686256 -31.078430   9.218133 -13.399695   0.000077 -51.941794   0.000073 -16.576214  -9.335999  13.578256  10.396987   1.634999  -5.831224  17.289268   0.000065   0.000024 -22.064741   0.441605  -0.391394  -0.471051  -0.000006  -0.000009 -12.659732  -0.013698   5.545771  17.584588   0.000291   0.000237  -3.728277   5.244907  -4.975608   0.504798   0.000006   0.000121
 -1.673539   0.899118   3.740797  -5.572992 -19.163341   2.630529   6.353318   3.247761   0.204126  -5.074866   1.247454   2.121199  -0.703178   1.977231  -0.180138  -3.936285  11.565621  -8.756662  -3.942658  38.206688  22.370003 -179.999697  82.314794 179.999519 -10.333134   9.655784   2.827371  -6.488284  -0.994919  10.647179 -31.042841   9.228823 -13.325999   0.000079 -51.881227   0.000059 -16.590512  -9.348717  13.603190  10.377169   1.636287  -5.840818  17.357135   0.000045  -0.000011 -22.069208   0.494159  -0.359815  -0.477791  -0.000003  -0.000007 -12.533445  -0.023708   5.592338  17.591738   0.000230   0.000187  -3.738753   5.222164  -5.006460   0.469912   0.000012   0.000118
 -1.673497   0.899094   3.740568  -5.621631 -19.210382   2.612452   6.392469   3.233785   0.235259  -5.105289   1.259135   2.130323  -0.714664   1.978163  -0.160516  -3.949962  11.585257  -8.730956  -3.882280  38.305160  22.295174 -179.999762  82.300220 179.999615 -10.335103   9.653555   2.839328  -6.478969  -1.014871  10.605299 -31.007576   9.239857 -13.260843   0.000070 -51.822168   0.000042 -16.607150  -9.344588  13.617958  10.363027   1.637169  -5.852682  17.436640   0.000031  -0.000043 -22.086852   0.543865  -0.325937  -0.483859  -0.000001  -0.000006 -12.414808  -0.033922   5.643599  17.607174   0.000176   0.000143  -3.748090   5.201149  -5.035138   0.437975   0.000018   0.000113
 -1.673407   0.899042   3.740437  -5.670112 -19.253355   2.592424   6.430570   3.219050   0.267473  -5.130258   1.268326   2.140845  -0.725777   1.979018  -0.141749  -3.958101  11.602947  -8.703286  -3.822673  38.397616  22.227548 -179.999814  82.286721 179.999693 -10.338955   9.649335   2.862444  -6.469358  -1.034341  10.561873 -30.973423   9.251014 -13.203175   0.000057 -51.766676   0.000026 -16.624480  -9.334904  13.625763  10.354573   1.637337  -5.866484  17.517636   0.000023  -0.000068 -22.112608   0.589608  -0.291817  -0.488861  -0.000000  -0.000004 -12.305825  -0.043985   5.697834  17.622238   0.000134   0.000109  -3.756688   5.181616  -5.061851   0.409180   0.000023   0.000104
 -1.673269   0.898969   3.740404  -5.716243 -19.293291   2.571527   6.467235   3.204164   0.300024  -5.151570   1.275566   2.152195  -0.736379   1.979809  -0.123897  -3.962942  11.618606  -8.675284  -3.764943  38.483904  22.165630 -179.999854  82.274153 179.999757 -10.343744   9.644123   2.891125  -6.459840  -1.052902  10.518381 -30.940751   9.262119 -13.151433   0.000041 -51.714700   0.000011 -16.641750  -9.323107  13.629297  10.350999   1.637205  -5.882895  17.596709   0.000020  -0.000087 -22.144458   0.631866  -0.258072  -0.492640   0.000000  -0.000004 -12.207281  -0.053806   5.753567  17.635351   0.000101   0.000083  -3.764717   5.163461  -5.086740   0.382894   0.000026   0.000096
